# xmcd
#
# Track frame offsets:
#	150
#	14117
#	29821
#	43860
#	60459
#	74137
#	88870
#	103806
#	121149
#	135632
#	150143
#	166177
#	181831
#	197627
#	211172
#	228050
#	242944
#	257142
#
# Disc length: 3608
#
# Revision: 3
# Processed by: cddbd v1.5.1PL0 Copyright (c) Steve Scherf et al.
# Submitted via: DiscPlay 4.0.3
# Normalized: r1:DSETVAR1,TSWAP
#
DISCID=fc0e1612
DTITLE=Various Artist - Hott Country Vol. # 17
DYEAR=1900
DGENRE=
TTITLE0=Scooter Lee - High Test Love
TTITLE1=Reba McEntire - I'd rather Ride Around With You
TTITLE2=Trace Adkins - I left Something Turned On At Home
TTITLE3=Lonestar - Come Cryin' To Me
TTITLE4=Michael Peterson - Drink, Swear, Steal and Lie
TTITLE5=Ricochet - He Left A Lot To Be Desired
TTITLE6=Tracy Byrd - Don't Love Make A Diamond Shine
TTITLE7=George Strait - Carrying Your Love With Me
TTITLE8=Gary Allan - From Where I'm Sitting
TTITLE9=Terri Clark - Just The Same
TTITLE10=Neal McCoy - The Shake
TTITLE11=Randy Travis - King Of The Road
TTITLE12=Tracy Lawrence - How A Cowgirl Says Goodbye
TTITLE13=Little Texas - Your Mama Won't Leave Me
TTITLE14=Big House - You Ain't Lonely Yet
TTITLE15=Mary-Chapin Carpenter - The Better To Dream Of You
TTITLE16=Victoria Shaw - Different Drum
TTITLE17=Scooter Lee - Rock and Roll Waltz
EXTD=
EXTT0=
EXTT1=
EXTT2=
EXTT3=
EXTT4=
EXTT5=
EXTT6=
EXTT7=
EXTT8=
EXTT9=
EXTT10=
EXTT11=
EXTT12=
EXTT13=
EXTT14=
EXTT15=
EXTT16=
EXTT17=
PLAYORDER=
